<svg viewBox="0 0 100 100" xmlns="http://www.w3.org/2000/svg">
  <defs>
    <linearGradient id="blue" x1="0%" y1="0%" x2="100%" y2="100%">
      <stop offset="0%" stop-color="#1565C0"/>
      <stop offset="100%" stop-color="#0D47A1"/>
    </linearGradient>
  </defs>

  <!-- Book -->
  <path
    d="M42 28
       C35 28, 20 25, 16 27
       L16 72
       C20 70, 35 72, 42 76
       C49 72, 62 70, 68 72
       L68 27
       C62 25, 49 28, 42 28Z"
    fill="none"
    stroke="url(#blue)"
    stroke-width="3.5"
    stroke-linejoin="round"
  />

  <!-- Book spine -->
  <path d="M42 28 L42 76" stroke="url(#blue)" stroke-width="2"/>

  <!-- Treble clef on left page -->
  <path
    d="M29 34
       C32 34, 34 37, 34 41
       C34 45, 31 47, 29 50
       C29 52, 30 54, 32 53
       C34 52, 33 49, 30 48
       C27 47, 25 49, 26 53
       C27 58, 30 61, 29 65"
    fill="none"
    stroke="url(#blue)"
    stroke-width="2.5"
    stroke-linecap="round"
  />
  <circle cx="29" cy="65" r="2" fill="url(#blue)"/>

  <!-- Staff lines on right page -->
  <line x1="46" y1="42" x2="64" y2="40" stroke="url(#blue)" stroke-width="1.5"/>
  <line x1="46" y1="50" x2="64" y2="48" stroke="url(#blue)" stroke-width="1.5"/>
  <line x1="46" y1="58" x2="64" y2="56" stroke="url(#blue)" stroke-width="1.5"/>

  <!-- Quill -->
  <path
    d="M78 15
       Q81 22, 83 32
       Q85 42, 81 52
       L79 62
       L77 52
       Q75 42, 76 32
       Q77 22, 78 15Z"
    fill="url(#blue)"
  />
  <line x1="79" y1="62" x2="79" y2="78" stroke="url(#blue)" stroke-width="2"/>
</svg>
